Coordinates
version=1
nRows=14
nColumns=40
inDegrees=yes

Units are S.I. units (second, meters, Newtons, ...)
Angles are in degrees.

endheader
time	pelvis_tilt	pelvis_list	pelvis_rotation	pelvis_tx	pelvis_ty	pelvis_tz	hip_flexion_r	hip_adduction_r	hip_rotation_r	knee_angle_r	knee_angle_r_beta	ankle_angle_r	subtalar_angle_r	mtp_angle_r	hip_flexion_l	hip_adduction_l	hip_rotation_l	knee_angle_l	knee_angle_l_beta	ankle_angle_l	subtalar_angle_l	mtp_angle_l	lumbar_extension	lumbar_bending	lumbar_rotation	arm_flex_r	arm_add_r	arm_rot_r	elbow_flex_r	pro_sup_r	wrist_flex_r	wrist_dev_r	arm_flex_l	arm_add_l	arm_rot_l	elbow_flex_l	pro_sup_l	wrist_flex_l	wrist_dev_l
     35.67692857	     -7.47184272	     -8.24018739	     -0.21593198	      1.03772865	      0.91362335	      0.50437438	     -0.96015545	      7.67537545	    -16.15586771	      5.40268218	      5.40268218	     15.46707761	     14.10743771	     -3.52144509	     37.22015552	    -12.74424123	      0.37470315	     22.05537070	     22.05537070	      5.21487862	     -7.38957492	     13.74834439	    -11.98258057	      8.83794534	      6.01356421	     41.24886119	    -13.57683239	      5.32759489	     90.93191383	     44.34049475	      0.00000000	      0.00000000	    -23.42863966	     -7.54537837	      6.98359031	     30.97643115	     45.37544402	      0.00000000	      0.00000000
     35.68885714	     -7.55154897	     -8.18979128	     -0.41838187	      1.03900252	      0.91254216	      0.50217054	     -1.38237493	      7.37792278	    -15.90695757	      5.76552152	      5.76552152	     15.95825062	     14.09433815	     -3.41433638	     36.71175093	    -12.52417569	     -0.25059017	     22.14339111	     22.14339111	      4.51775917	     -7.74801736	     12.92249003	    -11.70267857	      8.78252392	      5.61939710	     41.67684848	    -12.80453641	      5.73901634	     93.29293407	     44.26765680	      0.00000000	      0.00000000	    -23.91739009	     -7.32890344	      7.07852029	     30.80209760	     45.35914745	      0.00000000	      0.00000000
     35.70078571	     -7.64590905	     -8.09835389	     -0.65594369	      1.04026707	      0.91172291	      0.49982157	     -1.72543841	      6.99195972	    -15.76624341	      6.25132989	      6.25132989	     16.66253330	     14.22119908	     -2.63632206	     36.14293317	    -12.25621495	     -0.70162338	     22.20785373	     22.20785373	      2.81666011	     -8.70180078	      9.80790145	    -11.49424506	      8.60526538	      6.16397812	     41.46057370	    -13.26700253	      5.87838330	     96.58622044	     44.21611719	      0.00000000	      0.00000000	    -23.78197993	     -7.40418161	      7.15227327	     30.79872042	     45.36647529	      0.00000000	      0.00000000
     35.71271429	     -7.69182197	     -7.94819465	     -0.83727084	      1.04154815	      0.91126156	      0.49727516	     -2.11013860	      6.53158215	    -15.53619579	      6.70676464	      6.70676464	     16.99979272	     14.18314945	     -2.67841043	     35.75251418	    -11.95988525	     -1.06683669	     22.86443723	     22.86443723	      2.61925935	     -9.23350840	      9.52262064	    -11.25357963	      8.38824762	      5.81199640	     41.81789925	    -12.57794064	      6.05896156	     97.67274307	     44.18422615	      0.00000000	      0.00000000	    -23.83763338	     -7.29018312	      7.24554309	     30.68946456	     45.35438503	      0.00000000	      0.00000000
     35.72464286	     -7.85738266	     -7.77697976	     -0.96864120	      1.04266969	      0.91095367	      0.49445687	     -2.10260425	      5.95559286	    -15.49637428	      7.64358270	      7.64358270	     17.40585189	     14.11216781	     -2.63047708	     35.47289443	    -11.57904769	     -1.12095880	     23.46063549	     23.46063549	      2.32800825	     -9.98611017	      8.87161462	    -10.97836356	      8.19388470	      5.32711271	     41.80108299	    -12.00255293	      6.46397873	     99.94608390	     44.11499919	      0.00000000	      0.00000000	    -23.72641858	     -7.14724139	      7.35125695	     30.65223261	     45.34504812	      0.00000000	      0.00000000
     35.73657143	     -7.96582355	     -7.56610568	     -1.10650544	      1.04381794	      0.91112717	      0.49150360	     -2.16913346	      5.30351054	    -15.57377646	      8.55494224	      8.55494224	     17.82847558	     14.33381875	     -2.06237465	     35.09558324	    -11.16175817	     -1.08587882	     23.99906152	     23.99906152	      1.87386691	    -10.96412562	      7.60948009	    -10.82655360	      7.90406241	      5.80300949	     41.01162930	    -12.67440193	      6.40894479	    102.96826482	     44.07420712	      0.00000000	      0.00000000	    -22.96438896	     -7.38035738	      7.56837232	     30.67059684	     45.33703392	      0.00000000	      0.00000000
     35.74850000	     -7.97540813	     -7.39428672	     -1.18781137	      1.04501214	      0.91164792	      0.48846568	     -2.35274517	      4.71107698	    -15.45218094	      9.39907383	      9.39907383	     17.91447918	     14.24271916	     -2.15116426	     34.72264202	    -10.81568697	     -1.02399815	     24.75417455	     24.75417455	      2.30942284	    -11.43519915	      7.30728293	    -10.68292501	      7.68121089	      5.39613346	     40.78346678	    -12.24893670	      6.64310843	    103.88315271	     44.04475005	      0.00000000	      0.00000000	    -22.52996429	     -7.41155682	      7.63451680	     30.75079414	     45.33591740	      0.00000000	      0.00000000
     35.76042857	     -8.15047676	     -7.16123303	     -1.25164679	      1.04596315	      0.91225271	      0.48515394	     -2.01887010	      3.92751310	    -15.54221316	     10.86281455	     10.86281455	     18.03222702	     14.13977650	     -2.42104003	     34.46466463	    -10.37124071	     -0.92407519	     25.32683125	     25.32683125	      2.79228976	    -11.92601553	      7.17581694	    -10.45718790	      7.46672340	      5.04568371	     40.22325852	    -12.15685175	      6.98341402	    105.66728251	     43.98876920	      0.00000000	      0.00000000	    -21.85892049	     -7.44909109	      7.69209568	     30.97745016	     45.34047384	      0.00000000	      0.00000000
     35.77235714	     -8.33722470	     -6.90674204	     -1.30755442	      1.04682727	      0.91316781	      0.48174170	     -1.56960818	      3.06881998	    -15.66633936	     12.48741429	     12.48741429	     17.93715200	     14.08787585	     -2.83510667	     34.14781965	     -9.90001899	     -0.83232482	     25.73878779	     25.73878779	      3.43185198	    -12.29373683	      7.25743604	    -10.26279128	      7.19257811	      5.06007422	     39.26153603	    -12.63421214	      7.20293760	    107.65081662	     43.93405489	      0.00000000	      0.00000000	    -20.88000907	     -7.63597368	      7.71081738	     31.36387243	     45.35553252	      0.00000000	      0.00000000
     35.78428571	     -8.45000547	     -6.73308818	     -1.35857361	      1.04775313	      0.91439331	      0.47835517	     -1.15937208	      2.29220764	    -15.70388955	     14.16182227	     14.16182227	     17.59364714	     13.93340875	     -3.49166206	     33.70149715	     -9.53309943	     -0.80021918	     26.03654328	     26.03654328	      4.24661983	    -12.46777428	      7.46006624	    -10.11725766	      7.01040183	      5.18117356	     38.01754649	    -13.23634424	      7.23347743	    109.43532935	     43.89467057	      0.00000000	      0.00000000	    -19.75393815	     -7.92594891	      7.74800923	     31.78554657	     45.37040749	      0.00000000	      0.00000000
     35.79621429	     -8.49289937	     -6.55340545	     -1.43159309	      1.04864680	      0.91589150	      0.47497394	     -0.62558431	      1.47135655	    -15.64564644	     16.17380191	     16.17380191	     17.10241750	     13.42097194	     -4.23654984	     33.07803792	     -9.20027671	     -0.97139496	     26.14856532	     26.14856532	      5.05565138	    -12.45889259	      7.47083349	    -10.05074398	      6.79941182	      5.10035869	     36.79476042	    -13.52839756	      7.37807566	    110.42354958	     43.86814357	      0.00000000	      0.00000000	    -18.63698512	     -8.13883547	      7.74671432	     32.23713440	     45.38924532	      0.00000000	      0.00000000
     35.80814286	     -8.65240679	     -6.40634296	     -1.52511320	      1.04928015	      0.91734548	      0.47158893	      0.28763880	      0.64469044	    -15.44990096	     18.57781104	     18.57781104	     16.30463693	     12.64937429	     -5.38400063	     32.51952015	     -8.89900750	     -1.13164796	     26.09261671	     26.09261671	      5.80768323	    -12.29108225	      7.54161841	     -9.90488461	      6.67771109	      5.13466376	     35.39321300	    -14.13803838	      7.42460407	    111.53078673	     43.84321822	      0.00000000	      0.00000000	    -17.41854402	     -8.41953009	      7.68862382	     32.84636785	     45.41748560	      0.00000000	      0.00000000
     35.82007143	     -8.71583623	     -6.32642396	     -1.60619332	      1.04983784	      0.91895591	      0.46840774	      1.15947462	     -0.03093540	    -15.05809343	     20.89017420	     20.89017420	     14.12777629	     11.05826076	     -9.92628076	     31.85374804	     -8.70411171	     -1.43836142	     26.01924204	     26.01924204	      6.82422873	    -11.89540308	      8.20164985	     -9.89634576	      6.58074086	      5.83218925	     33.14843706	    -15.07193031	      6.44231330	    113.49479269	     43.90960352	      0.00000000	      0.00000000	    -15.73021375	     -8.92897039	      8.28909098	     33.51045675	     45.38166907	      0.00000000	      0.00000000
     35.83200000	     -8.75873909	     -6.19731200	     -1.72969938	      1.05020953	      0.92059886	      0.46527835	      2.49475537	     -0.87971289	    -14.67827159	     24.19440499	     24.19440499	     13.16013580	      9.53783840	    -10.66603727	     31.01017549	     -8.48020021	     -1.88811670	     25.63744162	     25.63744162	      7.39400212	    -11.48727171	      7.92959409	     -9.86012530	      6.43769196	      5.56283608	     31.74617964	    -15.36745085	      6.83809346	    113.37884457	     43.90514914	      0.00000000	      0.00000000	    -14.50158248	     -9.19136951	      8.15163141	     34.19740683	     45.42038114	      0.00000000	      0.00000000
